<?xml version="1.0" encoding="UTF-8"?>
<!DOCTYPE svg PUBLIC "-//W3C//DTD SVG 1.1//EN" "http://www.w3.org/Graphics/SVG/1.1/DTD/svg11.dtd">
<svg xmlns="http://www.w3.org/2000/svg" version="1.1" width="1021px" height="1017px" style="shape-rendering:geometricPrecision; text-rendering:geometricPrecision; image-rendering:optimizeQuality; fill-rule:evenodd; clip-rule:evenodd" xmlns:xlink="http://www.w3.org/1999/xlink">
<g><path style="opacity:0.998" fill="#fdfdfd" d="M 478.5,-0.5 C 499.5,-0.5 520.5,-0.5 541.5,-0.5C 697.971,12.3214 824.138,80.3214 920,203.5C 979.866,284.607 1013.37,375.607 1020.5,476.5C 1020.5,497.5 1020.5,518.5 1020.5,539.5C 1005.79,706.199 930.128,837.032 793.5,932C 716.809,981.841 632.809,1010.01 541.5,1016.5C 520.5,1016.5 499.5,1016.5 478.5,1016.5C 322.029,1003.68 195.862,935.679 100,812.5C 40.1339,731.393 6.63394,640.393 -0.5,539.5C -0.5,518.5 -0.5,497.5 -0.5,476.5C 14.2055,309.801 89.8722,178.968 226.5,84C 303.191,34.1585 387.191,5.99187 478.5,-0.5 Z"/></g>
<g><path style="opacity:1" fill="#020918" d="M 533.5,117.5 C 518.167,118.833 502.833,118.833 487.5,117.5C 502.832,116.198 518.166,116.198 533.5,117.5 Z"/></g>
<g><path style="opacity:1" fill="#04233f" d="M 487.5,117.5 C 502.833,118.833 518.167,118.833 533.5,117.5C 546.107,118.613 558.441,120.613 570.5,123.5C 571.205,124.797 572.872,125.464 575.5,125.5C 575.066,128.166 576.066,129.333 578.5,129C 575.79,127.332 575.957,126.499 579,126.5C 595.724,130.353 611.89,135.686 627.5,142.5C 657.788,157.263 684.288,177.263 707,202.5C 711.456,207.11 715.29,212.11 718.5,217.5C 737.607,243.048 751.941,271.048 761.5,301.5C 776.216,307.71 787.716,317.71 796,331.5C 806.311,349.073 811.811,368.073 812.5,388.5C 811.382,404.222 809.048,419.889 805.5,435.5C 800.178,455.652 788.845,471.486 771.5,483C 755.362,491.623 740.695,489.79 727.5,477.5C 726.614,476.224 725.614,476.224 724.5,477.5C 717.94,492.952 710.607,507.952 702.5,522.5C 690.966,541.548 676.633,558.382 659.5,573C 649.849,579.965 640.516,587.131 631.5,594.5C 643.815,599.825 655.815,605.992 667.5,613C 677.259,619.923 686.259,627.756 694.5,636.5C 702.653,648.123 709.82,660.456 716,673.5C 721.526,687.3 726.36,700.633 730.5,713.5C 738.185,731.272 734.851,746.772 720.5,760C 697.966,779.937 671.966,793.604 642.5,801C 621.027,832.638 592.027,854.138 555.5,865.5C 525.825,873.457 496.159,873.457 466.5,865.5C 438.735,856.362 414.902,841.029 395,819.5C 392.59,816.603 390.423,813.603 388.5,810.5C 386.469,806.289 383.802,802.456 380.5,799C 365.678,794.91 351.345,789.743 337.5,783.5C 320.761,775.88 306.261,765.213 294,751.5C 291.35,747.867 289.517,743.867 288.5,739.5C 293.326,701.706 306.66,667.039 328.5,635.5C 344.754,615.182 365.421,601.016 390.5,593C 367.808,579.138 348.474,561.638 332.5,540.5C 318.442,521.062 306.942,500.062 298,477.5C 296.598,475.027 295.098,475.027 293.5,477.5C 291.983,476.089 290.649,476.256 289.5,478C 290.684,479.145 290.684,480.312 289.5,481.5C 281.128,487.755 271.795,489.589 261.5,487C 247.402,482.728 236.735,474.228 229.5,461.5C 220.853,445.857 215.186,429.857 212.5,413.5C 208.232,390.374 210.399,367.708 219,345.5C 220.418,340.99 222.585,336.99 225.5,333.5C 233.611,319.726 244.944,309.393 259.5,302.5C 260.773,301.743 260.773,301.077 259.5,300.5C 261.235,293.523 263.569,286.856 266.5,280.5C 266.81,281.738 267.31,281.738 268,280.5C 273.526,265.782 280.36,251.782 288.5,238.5C 293.369,228.76 299.703,220.094 307.5,212.5C 319.5,199.833 331.833,187.5 344.5,175.5C 347.46,172.355 350.793,169.688 354.5,167.5C 354.435,167.938 354.601,168.272 355,168.5C 367.042,159.476 379.876,151.643 393.5,145C 394.738,144.31 394.738,143.81 393.5,143.5C 422.988,128.625 454.321,119.958 487.5,117.5 Z"/></g>
<g><path style="opacity:1" fill="#090f1a" d="M 570.5,123.5 C 590.593,126.864 609.593,133.198 627.5,142.5C 611.89,135.686 595.724,130.353 579,126.5C 575.957,126.499 575.79,127.332 578.5,129C 576.066,129.333 575.066,128.166 575.5,125.5C 572.872,125.464 571.205,124.797 570.5,123.5 Z"/></g>
<g><path style="opacity:1" fill="#fbfbfc" d="M 541.5,155.5 C 566.125,158.905 589.792,165.572 612.5,175.5C 629.025,184.927 644.691,195.594 659.5,207.5C 671.598,219.259 682.932,231.593 693.5,244.5C 705.888,262.603 716.222,281.936 724.5,302.5C 721.946,304.708 719.446,307.041 717,309.5C 712,300.833 707,292.167 702,283.5C 697.962,277.4 693.462,271.733 688.5,266.5C 677.481,251.814 664.481,239.148 649.5,228.5C 647.025,225.759 644.025,223.759 640.5,222.5C 628.199,212.846 614.533,205.513 599.5,200.5C 563.071,185.207 525.071,179.707 485.5,184C 473.078,185.121 461.078,187.621 449.5,191.5C 433.914,194.967 419.247,200.633 405.5,208.5C 395.16,212.663 385.826,218.33 377.5,225.5C 359.254,237.079 343.921,251.745 331.5,269.5C 321.572,281.16 313.239,293.993 306.5,308C 305.833,308.667 305.167,308.667 304.5,308C 301.638,306.265 299.304,304.098 297.5,301.5C 303.68,286.806 310.68,272.473 318.5,258.5C 372.356,180.75 446.689,146.417 541.5,155.5 Z"/></g>
<g><path style="opacity:1" fill="#0d101a" d="M 393.5,143.5 C 394.738,143.81 394.738,144.31 393.5,145C 379.876,151.643 367.042,159.476 355,168.5C 354.601,168.272 354.435,167.938 354.5,167.5C 366.419,157.949 379.419,149.949 393.5,143.5 Z"/></g>
<g><path style="opacity:1" fill="#12171f" d="M 541.5,155.5 C 544.64,154.359 547.973,154.192 551.5,155C 570.731,158.855 589.398,164.522 607.5,172C 609.431,172.902 611.097,174.069 612.5,175.5C 589.792,165.572 566.125,158.905 541.5,155.5 Z"/></g>
<g><path style="opacity:1" fill="#080b16" d="M 344.5,175.5 C 331.833,187.5 319.5,199.833 307.5,212.5C 316.202,201.29 325.869,190.79 336.5,181C 339.065,178.92 341.732,177.087 344.5,175.5 Z"/></g>
<g><path style="opacity:1" fill="#0b0f19" d="M 449.5,191.5 C 435.166,196.266 420.5,201.933 405.5,208.5C 419.247,200.633 433.914,194.967 449.5,191.5 Z"/></g>
<g><path style="opacity:1" fill="#0e121a" d="M 599.5,200.5 C 614.533,205.513 628.199,212.846 640.5,222.5C 626.921,214.879 613.255,207.546 599.5,200.5 Z"/></g>
<g><path style="opacity:1" fill="#fdfdfd" d="M 544.5,221.5 C 559.234,224.1 573.567,228.1 587.5,233.5C 587.842,234.338 588.508,234.672 589.5,234.5C 607.488,242.486 624.155,252.486 639.5,264.5C 673.934,296.267 694.934,335.267 702.5,381.5C 704.257,401.924 703.59,422.258 700.5,442.5C 690.555,482.118 670.555,515.785 640.5,543.5C 623.315,557.604 604.315,568.937 583.5,577.5C 546.685,591.04 509.018,594.04 470.5,586.5C 438.122,579.142 409.122,565.142 383.5,544.5C 377.203,537.702 370.703,531.035 364,524.5C 358.146,516.765 352.313,509.098 346.5,501.5C 337.876,486.249 330.876,470.249 325.5,453.5C 308.753,380.255 327.42,317.755 381.5,266C 429.129,227.339 483.462,212.505 544.5,221.5 Z"/></g>
<g><path style="opacity:1" fill="#0f141e" d="M 544.5,221.5 C 549.608,221.128 554.775,221.128 560,221.5C 560.5,222.667 561.333,223.5 562.5,224C 571.519,226.006 580.186,229.006 588.5,233C 588.272,233.399 587.938,233.565 587.5,233.5C 573.567,228.1 559.234,224.1 544.5,221.5 Z"/></g>
<g><path style="opacity:1" fill="#10131c" d="M 659.5,207.5 C 672.959,217.955 684.292,230.289 693.5,244.5C 682.932,231.593 671.598,219.259 659.5,207.5 Z"/></g>
<g><path style="opacity:1" fill="#10141c" d="M 377.5,225.5 C 370.357,231.802 363.024,237.969 355.5,244C 347.368,252.479 339.368,260.979 331.5,269.5C 343.921,251.745 359.254,237.079 377.5,225.5 Z"/></g>
<g><path style="opacity:1" fill="#0e121b" d="M 718.5,217.5 C 739.655,241.807 753.989,269.807 761.5,301.5C 751.941,271.048 737.607,243.048 718.5,217.5 Z"/></g>
<g><path style="opacity:1" fill="#0b0e18" d="M 589.5,234.5 C 589.56,233.957 589.893,233.624 590.5,233.5C 608.723,241.097 625.057,251.43 639.5,264.5C 624.155,252.486 607.488,242.486 589.5,234.5 Z"/></g>
<g><path style="opacity:1" fill="#0d101a" d="M 649.5,228.5 C 664.481,239.148 677.481,251.814 688.5,266.5C 675.746,252.735 662.746,240.068 649.5,228.5 Z"/></g>
<g><path style="opacity:1" fill="#0e121a" d="M 288.5,238.5 C 280.36,251.782 273.526,265.782 268,280.5C 267.31,281.738 266.81,281.738 266.5,280.5C 271.768,265.293 279.101,251.293 288.5,238.5 Z"/></g>
<g><path style="opacity:1" fill="#0a0e19" d="M 318.5,258.5 C 310.68,272.473 303.68,286.806 297.5,301.5C 302.129,285.911 309.129,271.577 318.5,258.5 Z"/></g>
<g><path style="opacity:1" fill="#13171e" d="M 259.5,300.5 C 260.773,301.077 260.773,301.743 259.5,302.5C 244.944,309.393 233.611,319.726 225.5,333.5C 232.896,318.437 244.23,307.437 259.5,300.5 Z"/></g>
<g><path style="opacity:1" fill="#10141c" d="M 601.5,350.5 C 586.925,349.807 574.591,354.807 564.5,365.5C 571.14,355.421 580.64,350.088 593,349.5C 595.848,349.798 598.681,350.131 601.5,350.5 Z"/></g>
<g><path style="opacity:1" fill="#04223e" d="M 601.5,350.5 C 626.258,358.339 635.758,375.006 630,400.5C 621.081,420.879 605.581,429.045 583.5,425C 560.426,415.015 552.259,397.849 559,373.5C 560.116,370.244 561.949,367.578 564.5,365.5C 574.591,354.807 586.925,349.807 601.5,350.5 Z"/></g>
<g><path style="opacity:1" fill="#04233f" d="M 466.5,399.5 C 456.018,422.365 438.351,429.531 413.5,421C 409.084,418.588 405.251,415.422 402,411.5C 399.879,407.441 397.713,404.108 395.5,401.5C 389.327,382.515 394.327,367.015 410.5,355C 428.957,346.358 445.457,349.191 460,363.5C 468.513,374.505 470.68,386.505 466.5,399.5 Z"/></g>
<g><path style="opacity:1" fill="#0e121a" d="M 812.5,388.5 C 813.18,404.752 810.847,420.419 805.5,435.5C 809.048,419.889 811.382,404.222 812.5,388.5 Z"/></g>
<g><path style="opacity:1" fill="#0e121b" d="M 466.5,399.5 C 458.112,421.033 442.446,429.533 419.5,425C 407.682,421.015 399.682,413.181 395.5,401.5C 397.713,404.108 399.879,407.441 402,411.5C 405.251,415.422 409.084,418.588 413.5,421C 438.351,429.531 456.018,422.365 466.5,399.5 Z"/></g>
<g><path style="opacity:1" fill="#0c0f1a" d="M 700.5,442.5 C 703.59,422.258 704.257,401.924 702.5,381.5C 704.269,387.385 705.269,395.385 705.5,405.5C 705.213,418.651 703.713,431.651 701,444.5C 700.536,443.906 700.369,443.239 700.5,442.5 Z"/></g>
<g><path style="opacity:1" fill="#0d111a" d="M 229.5,461.5 C 219.498,447.168 213.831,431.168 212.5,413.5C 215.186,429.857 220.853,445.857 229.5,461.5 Z"/></g>
<g><path style="opacity:1" fill="#05223d" d="M 523.5,493.5 C 541.824,493.334 556.491,485.667 567.5,470.5C 571.084,465.953 575.75,464.453 581.5,466C 590.417,469.568 594.251,476.068 593,485.5C 584.993,501.173 572.826,512.34 556.5,519C 518.007,533.13 481.341,529.463 446.5,508C 438.253,501.099 432.42,492.599 429,482.5C 428.284,475.435 431.117,470.268 437.5,467C 441.375,465.48 445.375,465.146 449.5,466C 456.794,471.626 463.794,477.626 470.5,484C 487.133,492.971 504.8,496.138 523.5,493.5 Z"/></g>
<g><path style="opacity:1" fill="#0e121c" d="M 325.5,453.5 C 330.876,470.249 337.876,486.249 346.5,501.5C 341.018,494.555 336.518,486.888 333,478.5C 329.074,470.256 326.574,461.922 325.5,453.5 Z"/></g>
<g><path style="opacity:1" fill="#090d18" d="M 567.5,470.5 C 556.491,485.667 541.824,493.334 523.5,493.5C 532.219,492.316 540.552,489.816 548.5,486C 555.017,480.976 561.35,475.809 567.5,470.5 Z"/></g>
<g><path style="opacity:1" fill="#0c0f18" d="M 727.5,477.5 C 726.624,477.369 725.957,477.702 725.5,478.5C 719.364,494.111 711.697,508.778 702.5,522.5C 710.607,507.952 717.94,492.952 724.5,477.5C 725.614,476.224 726.614,476.224 727.5,477.5 Z"/></g>
<g><path style="opacity:1" fill="#10141d" d="M 332.5,540.5 C 317.366,521.919 305.532,501.252 297,478.5C 296.667,478.167 296.333,477.833 296,477.5C 294.028,479.232 291.861,480.565 289.5,481.5C 290.684,480.312 290.684,479.145 289.5,478C 290.649,476.256 291.983,476.089 293.5,477.5C 295.098,475.027 296.598,475.027 298,477.5C 306.942,500.062 318.442,521.062 332.5,540.5 Z"/></g>
<g><path style="opacity:1" fill="#10131b" d="M 383.5,544.5 C 409.122,565.142 438.122,579.142 470.5,586.5C 469.903,587.139 469.07,587.472 468,587.5C 444.601,582.034 422.767,572.868 402.5,560C 395.659,555.274 389.326,550.108 383.5,544.5 Z"/></g>
<g><path style="opacity:1" fill="#0c0f18" d="M 640.5,543.5 C 623.909,559.279 604.909,570.612 583.5,577.5C 604.315,568.937 623.315,557.604 640.5,543.5 Z"/></g>
<g><path style="opacity:1" fill="#10131c" d="M 631.5,594.5 C 649.588,600.209 665.922,609.042 680.5,621C 685.766,625.759 690.433,630.925 694.5,636.5C 686.259,627.756 677.259,619.923 667.5,613C 655.815,605.992 643.815,599.825 631.5,594.5 Z"/></g>
<g><path style="opacity:1" fill="#fcfcfd" d="M 451.5,633.5 C 479.76,641.526 508.427,643.526 537.5,639.5C 561.128,637.593 583.794,631.926 605.5,622.5C 642.761,628.367 669.261,648.367 685,682.5C 692.1,698.801 697.766,715.467 702,732.5C 688.152,744.429 672.819,754.096 656,761.5C 658.987,741.661 659.987,721.661 659,701.5C 654.65,692.55 647.817,688.883 638.5,690.5C 634.546,692.62 631.379,695.62 629,699.5C 628.5,709.494 628.334,719.494 628.5,729.5C 627.551,733.657 626.884,737.99 626.5,742.5C 624.588,759.572 618.922,775.239 609.5,789.5C 574.045,831.872 529.378,846.205 475.5,832.5C 460.832,827.333 447.166,820.333 434.5,811.5C 410.521,791.543 397.688,765.876 396,734.5C 395.667,723.167 395.333,711.833 395,700.5C 390.218,690.184 382.718,687.351 372.5,692C 368.908,694.921 366.075,698.421 364,702.5C 362.882,721.437 363.716,740.27 366.5,759C 366.167,759.5 365.833,760 365.5,760.5C 349.41,753.885 334.743,745.052 321.5,734C 320.919,733.107 320.585,732.107 320.5,731C 326.604,705.669 336.771,682.169 351,660.5C 365.445,642.031 383.945,629.698 406.5,623.5C 410.49,622.81 414.49,622.643 418.5,623C 429.165,627.611 440.165,631.111 451.5,633.5 Z"/></g>
<g><path style="opacity:1" fill="#0f111a" d="M 451.5,633.5 C 440.165,631.111 429.165,627.611 418.5,623C 414.49,622.643 410.49,622.81 406.5,623.5C 409.235,622.057 412.235,621.057 415.5,620.5C 427.451,625.259 439.451,629.592 451.5,633.5 Z"/></g>
<g><path style="opacity:1" fill="#090c15" d="M 605.5,622.5 C 583.794,631.926 561.128,637.593 537.5,639.5C 559.816,636.7 581.982,630.7 604,621.5C 604.765,621.57 605.265,621.903 605.5,622.5 Z"/></g>
<g><path style="opacity:1" fill="#0c0f19" d="M 694.5,636.5 C 703.727,647.258 711.227,659.258 717,672.5C 722.806,685.753 727.306,699.419 730.5,713.5C 726.36,700.633 721.526,687.3 716,673.5C 709.82,660.456 702.653,648.123 694.5,636.5 Z"/></g>
<g><path style="opacity:1" fill="#03050b" d="M 638.5,690.5 C 638.938,690.435 639.272,690.601 639.5,691C 635.281,693.552 632.114,697.052 630,701.5C 629.845,711.579 629.345,720.913 628.5,729.5C 628.334,719.494 628.5,709.494 629,699.5C 631.379,695.62 634.546,692.62 638.5,690.5 Z"/></g>
<g><path style="opacity:1" fill="#0f141d" d="M 328.5,635.5 C 306.66,667.039 293.326,701.706 288.5,739.5C 287.751,735.181 287.585,730.848 288,726.5C 293.453,700.801 302.453,676.468 315,653.5C 318.791,646.895 323.291,640.895 328.5,635.5 Z"/></g>
<g><path style="opacity:1" fill="#0e111c" d="M 626.5,742.5 C 627.308,751.337 625.808,760.004 622,768.5C 619.228,776.414 615.061,783.414 609.5,789.5C 618.922,775.239 624.588,759.572 626.5,742.5 Z"/></g>
<g><path style="opacity:1" fill="#0e121b" d="M 337.5,783.5 C 351.345,789.743 365.678,794.91 380.5,799C 383.802,802.456 386.469,806.289 388.5,810.5C 385.495,807.682 382.828,804.516 380.5,801C 365.406,796.778 351.073,790.945 337.5,783.5 Z"/></g>
<g><path style="opacity:1" fill="#11141d" d="M 434.5,811.5 C 447.166,820.333 460.832,827.333 475.5,832.5C 473.292,832.959 471.126,832.959 469,832.5C 462.82,828.886 456.32,826.053 449.5,824C 444.029,820.283 439.029,816.117 434.5,811.5 Z"/></g>
<g><path style="opacity:1" fill="#fd6f12" d="M 466.5,865.5 C 496.159,873.457 525.825,873.457 555.5,865.5C 599.036,867.067 642.37,870.9 685.5,877C 694.655,878.121 703.322,880.788 711.5,885C 716.833,889.333 716.833,893.667 711.5,898C 706.739,900.587 701.739,902.587 696.5,904C 658.469,910.7 620.136,914.7 581.5,916C 512.409,918.909 443.409,917.576 374.5,912C 358.383,910.468 342.383,908.135 326.5,905C 319.42,903.544 313.253,900.377 308,895.5C 306,893.167 306,890.833 308,888.5C 309.873,886.291 312.04,884.458 314.5,883C 323.878,879.319 333.544,876.652 343.5,875C 384.307,869.4 425.307,866.233 466.5,865.5 Z"/></g>
</svg>
